<mxfile host="app.diagrams.net" modified="2021-04-30T08:34:35.678Z" agent="5.0 (Windows NT 6.1; Win64; x64) AppleWebKit/537.36 (KHTML, like Gecko) Chrome/90.0.4430.85 Safari/537.36" etag="rksctdK9UQNZbgfunBGV" version="14.6.6" type="github">
  <diagram id="8cNXlBiLXLBAkxZQb8D8" name="Page-1">
    <mxGraphModel dx="2249" dy="762" grid="1" gridSize="10" guides="1" tooltips="1" connect="1" arrows="1" fold="1" page="1" pageScale="1" pageWidth="827" pageHeight="1169" math="0" shadow="0">
      <root>
        <mxCell id="0" />
        <mxCell id="1" parent="0" />
        <mxCell id="PSnNEIr_YmE9VNYy7DB6-49" value="多店主结算" style="shape=umlFrame;whiteSpace=wrap;html=1;width=80;height=33;fillColor=#99FFFF;strokeColor=#007FFF;" vertex="1" parent="1">
          <mxGeometry x="-680" y="1200" width="780" height="790" as="geometry" />
        </mxCell>
        <mxCell id="PSnNEIr_YmE9VNYy7DB6-50" value="经销模式" style="shape=umlFrame;whiteSpace=wrap;html=1;width=80;height=33;fillColor=#99FFFF;strokeColor=#007FFF;" vertex="1" parent="1">
          <mxGeometry x="-310" y="1080" width="1440" height="810" as="geometry" />
        </mxCell>
        <mxCell id="78lRP6di_E0o8tFX1qry-29" value="授权token管理" style="shape=umlFrame;whiteSpace=wrap;html=1;align=left;width=130;height=29;fillColor=#99FFFF;strokeColor=#007FFF;" parent="1" vertex="1">
          <mxGeometry x="-609" y="500" width="440" height="259" as="geometry" />
        </mxCell>
        <mxCell id="78lRP6di_E0o8tFX1qry-31" style="edgeStyle=orthogonalEdgeStyle;rounded=0;orthogonalLoop=1;jettySize=auto;html=1;" parent="1" source="78lRP6di_E0o8tFX1qry-28" target="78lRP6di_E0o8tFX1qry-29" edge="1">
          <mxGeometry relative="1" as="geometry">
            <Array as="points">
              <mxPoint x="100" y="611" />
            </Array>
          </mxGeometry>
        </mxCell>
        <mxCell id="78lRP6di_E0o8tFX1qry-37" value="1.2 response_code授权，客户端通过回调的code换取token" style="edgeLabel;html=1;align=center;verticalAlign=middle;resizable=0;points=[];fontColor=#FF0000;" parent="78lRP6di_E0o8tFX1qry-31" vertex="1" connectable="0">
          <mxGeometry x="-0.584" y="-1" relative="1" as="geometry">
            <mxPoint as="offset" />
          </mxGeometry>
        </mxCell>
        <mxCell id="78lRP6di_E0o8tFX1qry-28" value="客户response_code授权模式code管理" style="shape=umlFrame;whiteSpace=wrap;html=1;align=left;width=220;height=30;labelBackgroundColor=none;labelBorderColor=none;fillColor=#99FFFF;strokeColor=#007FFF;" parent="1" vertex="1">
          <mxGeometry x="-110" y="155" width="500" height="326" as="geometry" />
        </mxCell>
        <mxCell id="78lRP6di_E0o8tFX1qry-30" style="edgeStyle=orthogonalEdgeStyle;rounded=0;orthogonalLoop=1;jettySize=auto;html=1;" parent="1" source="78lRP6di_E0o8tFX1qry-27" target="78lRP6di_E0o8tFX1qry-28" edge="1">
          <mxGeometry relative="1" as="geometry">
            <Array as="points">
              <mxPoint x="-155" y="239" />
              <mxPoint x="-155" y="318" />
            </Array>
          </mxGeometry>
        </mxCell>
        <mxCell id="78lRP6di_E0o8tFX1qry-36" value="1.1&amp;nbsp;response_code授权，先用client_id换取code，saas生成code并回调接口" style="edgeLabel;html=1;align=center;verticalAlign=middle;resizable=0;points=[];fontColor=#FF0000;" parent="78lRP6di_E0o8tFX1qry-30" vertex="1" connectable="0">
          <mxGeometry x="0.1243" y="1" relative="1" as="geometry">
            <mxPoint as="offset" />
          </mxGeometry>
        </mxCell>
        <mxCell id="78lRP6di_E0o8tFX1qry-32" value="2.1&amp;nbsp;凭证授权，直接用client_id以及client_secret换取token" style="edgeStyle=orthogonalEdgeStyle;rounded=0;orthogonalLoop=1;jettySize=auto;html=1;fontColor=#FF0000;labelBackgroundColor=none;" parent="1" source="78lRP6di_E0o8tFX1qry-27" target="78lRP6di_E0o8tFX1qry-29" edge="1">
          <mxGeometry relative="1" as="geometry" />
        </mxCell>
        <mxCell id="78lRP6di_E0o8tFX1qry-27" value="客户授权凭证管理" style="shape=umlFrame;whiteSpace=wrap;html=1;align=left;width=149;height=26;fillColor=#99FFFF;strokeColor=#007FFF;" parent="1" vertex="1">
          <mxGeometry x="-609" y="84" width="409" height="310" as="geometry" />
        </mxCell>
        <mxCell id="y5n3PDEYsCLpKXq8bgqE-3" value="oauth_app(app授权信息)" style="swimlane;fontStyle=0;childLayout=stackLayout;horizontal=1;startSize=26;fillColor=none;horizontalStack=0;resizeParent=1;resizeParentMax=0;resizeLast=0;collapsible=1;marginBottom=0;" parent="1" vertex="1">
          <mxGeometry x="-500" y="140" width="196" height="78" as="geometry" />
        </mxCell>
        <mxCell id="y5n3PDEYsCLpKXq8bgqE-4" value="+ oauth_app_id" style="text;strokeColor=none;fillColor=none;align=left;verticalAlign=top;spacingLeft=4;spacingRight=4;overflow=hidden;rotatable=0;points=[[0,0.5],[1,0.5]];portConstraint=eastwest;" parent="y5n3PDEYsCLpKXq8bgqE-3" vertex="1">
          <mxGeometry y="26" width="196" height="26" as="geometry" />
        </mxCell>
        <mxCell id="y5n3PDEYsCLpKXq8bgqE-7" value="……" style="text;strokeColor=none;fillColor=none;align=left;verticalAlign=top;spacingLeft=4;spacingRight=4;overflow=hidden;rotatable=0;points=[[0,0.5],[1,0.5]];portConstraint=eastwest;" parent="y5n3PDEYsCLpKXq8bgqE-3" vertex="1">
          <mxGeometry y="52" width="196" height="26" as="geometry" />
        </mxCell>
        <mxCell id="y5n3PDEYsCLpKXq8bgqE-8" value="oauth_app_scope(app开放的授权域)" style="swimlane;fontStyle=0;childLayout=stackLayout;horizontal=1;startSize=26;fillColor=none;horizontalStack=0;resizeParent=1;resizeParentMax=0;resizeLast=0;collapsible=1;marginBottom=0;" parent="1" vertex="1">
          <mxGeometry x="-500" y="262" width="230" height="78" as="geometry" />
        </mxCell>
        <mxCell id="y5n3PDEYsCLpKXq8bgqE-9" value="+ oauth_app_id" style="text;strokeColor=none;fillColor=none;align=left;verticalAlign=top;spacingLeft=4;spacingRight=4;overflow=hidden;rotatable=0;points=[[0,0.5],[1,0.5]];portConstraint=eastwest;" parent="y5n3PDEYsCLpKXq8bgqE-8" vertex="1">
          <mxGeometry y="26" width="230" height="26" as="geometry" />
        </mxCell>
        <mxCell id="y5n3PDEYsCLpKXq8bgqE-10" value="……" style="text;strokeColor=none;fillColor=none;align=left;verticalAlign=top;spacingLeft=4;spacingRight=4;overflow=hidden;rotatable=0;points=[[0,0.5],[1,0.5]];portConstraint=eastwest;" parent="y5n3PDEYsCLpKXq8bgqE-8" vertex="1">
          <mxGeometry y="52" width="230" height="26" as="geometry" />
        </mxCell>
        <mxCell id="y5n3PDEYsCLpKXq8bgqE-18" value="oauth_code(授权码，response_code授权模式)" style="swimlane;fontStyle=0;childLayout=stackLayout;horizontal=1;startSize=26;fillColor=none;horizontalStack=0;resizeParent=1;resizeParentMax=0;resizeLast=0;collapsible=1;marginBottom=0;" parent="1" vertex="1">
          <mxGeometry x="-30" y="209" width="256" height="78" as="geometry" />
        </mxCell>
        <mxCell id="y5n3PDEYsCLpKXq8bgqE-19" value="+ oauth_code_id" style="text;strokeColor=none;fillColor=none;align=left;verticalAlign=top;spacingLeft=4;spacingRight=4;overflow=hidden;rotatable=0;points=[[0,0.5],[1,0.5]];portConstraint=eastwest;" parent="y5n3PDEYsCLpKXq8bgqE-18" vertex="1">
          <mxGeometry y="26" width="256" height="26" as="geometry" />
        </mxCell>
        <mxCell id="y5n3PDEYsCLpKXq8bgqE-20" value="……" style="text;strokeColor=none;fillColor=none;align=left;verticalAlign=top;spacingLeft=4;spacingRight=4;overflow=hidden;rotatable=0;points=[[0,0.5],[1,0.5]];portConstraint=eastwest;" parent="y5n3PDEYsCLpKXq8bgqE-18" vertex="1">
          <mxGeometry y="52" width="256" height="26" as="geometry" />
        </mxCell>
        <mxCell id="y5n3PDEYsCLpKXq8bgqE-21" value="oauth_code_scope(授权码授权域，response_code授权模式)" style="swimlane;fontStyle=0;childLayout=stackLayout;horizontal=1;startSize=26;fillColor=none;horizontalStack=0;resizeParent=1;resizeParentMax=0;resizeLast=0;collapsible=1;marginBottom=0;" parent="1" vertex="1">
          <mxGeometry x="-30" y="341" width="356" height="78" as="geometry" />
        </mxCell>
        <mxCell id="y5n3PDEYsCLpKXq8bgqE-22" value="+ oauth_code_id" style="text;strokeColor=none;fillColor=none;align=left;verticalAlign=top;spacingLeft=4;spacingRight=4;overflow=hidden;rotatable=0;points=[[0,0.5],[1,0.5]];portConstraint=eastwest;" parent="y5n3PDEYsCLpKXq8bgqE-21" vertex="1">
          <mxGeometry y="26" width="356" height="26" as="geometry" />
        </mxCell>
        <mxCell id="y5n3PDEYsCLpKXq8bgqE-23" value="……" style="text;strokeColor=none;fillColor=none;align=left;verticalAlign=top;spacingLeft=4;spacingRight=4;overflow=hidden;rotatable=0;points=[[0,0.5],[1,0.5]];portConstraint=eastwest;" parent="y5n3PDEYsCLpKXq8bgqE-21" vertex="1">
          <mxGeometry y="52" width="356" height="26" as="geometry" />
        </mxCell>
        <mxCell id="y5n3PDEYsCLpKXq8bgqE-24" value="oauth_token(app开放的授权域)" style="swimlane;fontStyle=0;childLayout=stackLayout;horizontal=1;startSize=26;fillColor=none;horizontalStack=0;resizeParent=1;resizeParentMax=0;resizeLast=0;collapsible=1;marginBottom=0;" parent="1" vertex="1">
          <mxGeometry x="-514" y="552" width="230" height="78" as="geometry" />
        </mxCell>
        <mxCell id="y5n3PDEYsCLpKXq8bgqE-25" value="+ oauth_token_id" style="text;strokeColor=none;fillColor=none;align=left;verticalAlign=top;spacingLeft=4;spacingRight=4;overflow=hidden;rotatable=0;points=[[0,0.5],[1,0.5]];portConstraint=eastwest;" parent="y5n3PDEYsCLpKXq8bgqE-24" vertex="1">
          <mxGeometry y="26" width="230" height="26" as="geometry" />
        </mxCell>
        <mxCell id="y5n3PDEYsCLpKXq8bgqE-26" value="……" style="text;strokeColor=none;fillColor=none;align=left;verticalAlign=top;spacingLeft=4;spacingRight=4;overflow=hidden;rotatable=0;points=[[0,0.5],[1,0.5]];portConstraint=eastwest;" parent="y5n3PDEYsCLpKXq8bgqE-24" vertex="1">
          <mxGeometry y="52" width="230" height="26" as="geometry" />
        </mxCell>
        <mxCell id="y5n3PDEYsCLpKXq8bgqE-27" value="oauth_token_scope(app开放的授权域)" style="swimlane;fontStyle=0;childLayout=stackLayout;horizontal=1;startSize=26;fillColor=none;horizontalStack=0;resizeParent=1;resizeParentMax=0;resizeLast=0;collapsible=1;marginBottom=0;" parent="1" vertex="1">
          <mxGeometry x="-514" y="662" width="230" height="78" as="geometry" />
        </mxCell>
        <mxCell id="y5n3PDEYsCLpKXq8bgqE-28" value="+ oauth_token_id" style="text;strokeColor=none;fillColor=none;align=left;verticalAlign=top;spacingLeft=4;spacingRight=4;overflow=hidden;rotatable=0;points=[[0,0.5],[1,0.5]];portConstraint=eastwest;" parent="y5n3PDEYsCLpKXq8bgqE-27" vertex="1">
          <mxGeometry y="26" width="230" height="26" as="geometry" />
        </mxCell>
        <mxCell id="y5n3PDEYsCLpKXq8bgqE-29" value="……" style="text;strokeColor=none;fillColor=none;align=left;verticalAlign=top;spacingLeft=4;spacingRight=4;overflow=hidden;rotatable=0;points=[[0,0.5],[1,0.5]];portConstraint=eastwest;" parent="y5n3PDEYsCLpKXq8bgqE-27" vertex="1">
          <mxGeometry y="52" width="230" height="26" as="geometry" />
        </mxCell>
        <mxCell id="y5n3PDEYsCLpKXq8bgqE-30" value="&lt;font style=&quot;font-size: 18px&quot; color=&quot;#3333ff&quot;&gt;saas授权数据库结构以及说明&lt;/font&gt;" style="text;html=1;align=center;verticalAlign=middle;resizable=0;points=[];autosize=1;strokeColor=none;" parent="1" vertex="1">
          <mxGeometry x="-500" y="40" width="250" height="20" as="geometry" />
        </mxCell>
        <mxCell id="y5n3PDEYsCLpKXq8bgqE-31" style="edgeStyle=orthogonalEdgeStyle;rounded=0;orthogonalLoop=1;jettySize=auto;html=1;exitX=1;exitY=0.5;exitDx=0;exitDy=0;entryX=1;entryY=0.5;entryDx=0;entryDy=0;" parent="1" source="y5n3PDEYsCLpKXq8bgqE-9" target="y5n3PDEYsCLpKXq8bgqE-4" edge="1">
          <mxGeometry relative="1" as="geometry" />
        </mxCell>
        <mxCell id="y5n3PDEYsCLpKXq8bgqE-32" style="edgeStyle=orthogonalEdgeStyle;rounded=0;orthogonalLoop=1;jettySize=auto;html=1;exitX=1;exitY=0.5;exitDx=0;exitDy=0;entryX=1;entryY=0.5;entryDx=0;entryDy=0;" parent="1" source="y5n3PDEYsCLpKXq8bgqE-22" target="y5n3PDEYsCLpKXq8bgqE-19" edge="1">
          <mxGeometry relative="1" as="geometry" />
        </mxCell>
        <mxCell id="y5n3PDEYsCLpKXq8bgqE-33" style="edgeStyle=orthogonalEdgeStyle;rounded=0;orthogonalLoop=1;jettySize=auto;html=1;exitX=1;exitY=0.5;exitDx=0;exitDy=0;entryX=1;entryY=0.5;entryDx=0;entryDy=0;" parent="1" source="y5n3PDEYsCLpKXq8bgqE-28" target="y5n3PDEYsCLpKXq8bgqE-25" edge="1">
          <mxGeometry relative="1" as="geometry" />
        </mxCell>
        <mxCell id="y5n3PDEYsCLpKXq8bgqE-34" value="&lt;div style=&quot;&quot;&gt;&lt;span style=&quot;font-size: 18px ; color: rgb(51 , 51 , 255)&quot;&gt;说明：&lt;/span&gt;&lt;/div&gt;&lt;div style=&quot;&quot;&gt;&lt;span style=&quot;font-size: 18px ; color: rgb(51 , 51 , 255)&quot;&gt;1.&amp;nbsp;saas开放平台授权采用oauth2.0标准授权模式&lt;/span&gt;&lt;/div&gt;&lt;div style=&quot;&quot;&gt;&lt;span style=&quot;font-size: 18px ; color: rgb(51 , 51 , 255)&quot;&gt;2. 由于目前系统不存在用户授权，所以统统凭证、&lt;/span&gt;&lt;/div&gt;&lt;div style=&quot;&quot;&gt;&lt;span style=&quot;font-size: 18px ; color: rgb(51 , 51 , 255)&quot;&gt;&amp;nbsp; &amp;nbsp; 授权的模式，没有response_code授权模式，&lt;/span&gt;&lt;/div&gt;&lt;div style=&quot;&quot;&gt;&lt;span style=&quot;font-size: 18px ; color: rgb(51 , 51 , 255)&quot;&gt;&amp;nbsp; &amp;nbsp; 表oauth_code，oauth_code_scope暂时业务&lt;/span&gt;&lt;/div&gt;&lt;div style=&quot;&quot;&gt;&lt;span style=&quot;font-size: 18px ; color: rgb(51 , 51 , 255)&quot;&gt;&amp;nbsp; &amp;nbsp; 中没有使用&lt;/span&gt;&lt;/div&gt;&lt;div style=&quot;&quot;&gt;&lt;span style=&quot;font-size: 18px ; color: rgb(51 , 51 , 255)&quot;&gt;3.&amp;nbsp;凭证授权模式的流程直接作用在client和resource&lt;/span&gt;&lt;/div&gt;&lt;div style=&quot;&quot;&gt;&lt;span style=&quot;font-size: 18px ; color: rgb(51 , 51 , 255)&quot;&gt;&amp;nbsp; &amp;nbsp; 端之间，通过oauth_app表里面的client_id和&lt;/span&gt;&lt;/div&gt;&lt;div style=&quot;&quot;&gt;&lt;span style=&quot;font-size: 18px ; color: rgb(51 , 51 , 255)&quot;&gt;&amp;nbsp; &amp;nbsp; client_secret交换生成并获取access_token&lt;/span&gt;&lt;/div&gt;&lt;div style=&quot;&quot;&gt;&lt;span style=&quot;font-size: 18px ; color: rgb(51 , 51 , 255)&quot;&gt;&amp;nbsp; &amp;nbsp; 以及refresh_token&lt;/span&gt;&lt;/div&gt;&lt;div style=&quot;&quot;&gt;&lt;span style=&quot;font-size: 18px ; color: rgb(51 , 51 , 255)&quot;&gt;4.&amp;nbsp;店铺授权的地方约定授权域为&quot;SCORE:&quot;+店铺名&lt;/span&gt;&lt;/div&gt;" style="text;html=1;align=left;verticalAlign=middle;resizable=0;points=[];autosize=1;strokeColor=none;" parent="1" vertex="1">
          <mxGeometry x="-609" y="860" width="420" height="180" as="geometry" />
        </mxCell>
        <mxCell id="78lRP6di_E0o8tFX1qry-1" value="marketing_tool(营销工具表)" style="swimlane;fontStyle=0;childLayout=stackLayout;horizontal=1;startSize=26;fillColor=none;horizontalStack=0;resizeParent=1;resizeParentMax=0;resizeLast=0;collapsible=1;marginBottom=0;" parent="1" vertex="1">
          <mxGeometry x="440" y="120" width="280" height="78" as="geometry" />
        </mxCell>
        <mxCell id="78lRP6di_E0o8tFX1qry-2" value="+ code" style="text;strokeColor=none;fillColor=none;align=left;verticalAlign=top;spacingLeft=4;spacingRight=4;overflow=hidden;rotatable=0;points=[[0,0.5],[1,0.5]];portConstraint=eastwest;" parent="78lRP6di_E0o8tFX1qry-1" vertex="1">
          <mxGeometry y="26" width="280" height="26" as="geometry" />
        </mxCell>
        <mxCell id="78lRP6di_E0o8tFX1qry-13" value="……" style="text;strokeColor=none;fillColor=none;align=left;verticalAlign=top;spacingLeft=4;spacingRight=4;overflow=hidden;rotatable=0;points=[[0,0.5],[1,0.5]];portConstraint=eastwest;" parent="78lRP6di_E0o8tFX1qry-1" vertex="1">
          <mxGeometry y="52" width="280" height="26" as="geometry" />
        </mxCell>
        <mxCell id="78lRP6di_E0o8tFX1qry-5" value="saas_marketing_tool(saas营销工具关联表)" style="swimlane;fontStyle=0;childLayout=stackLayout;horizontal=1;startSize=26;fillColor=none;horizontalStack=0;resizeParent=1;resizeParentMax=0;resizeLast=0;collapsible=1;marginBottom=0;" parent="1" vertex="1">
          <mxGeometry x="440" y="287" width="250" height="104" as="geometry" />
        </mxCell>
        <mxCell id="78lRP6di_E0o8tFX1qry-6" value="+ saas_id" style="text;strokeColor=none;fillColor=none;align=left;verticalAlign=top;spacingLeft=4;spacingRight=4;overflow=hidden;rotatable=0;points=[[0,0.5],[1,0.5]];portConstraint=eastwest;" parent="78lRP6di_E0o8tFX1qry-5" vertex="1">
          <mxGeometry y="26" width="250" height="26" as="geometry" />
        </mxCell>
        <mxCell id="78lRP6di_E0o8tFX1qry-7" value="+ marketing_tool_code" style="text;strokeColor=none;fillColor=none;align=left;verticalAlign=top;spacingLeft=4;spacingRight=4;overflow=hidden;rotatable=0;points=[[0,0.5],[1,0.5]];portConstraint=eastwest;" parent="78lRP6di_E0o8tFX1qry-5" vertex="1">
          <mxGeometry y="52" width="250" height="26" as="geometry" />
        </mxCell>
        <mxCell id="78lRP6di_E0o8tFX1qry-8" value="……" style="text;strokeColor=none;fillColor=none;align=left;verticalAlign=top;spacingLeft=4;spacingRight=4;overflow=hidden;rotatable=0;points=[[0,0.5],[1,0.5]];portConstraint=eastwest;" parent="78lRP6di_E0o8tFX1qry-5" vertex="1">
          <mxGeometry y="78" width="250" height="26" as="geometry" />
        </mxCell>
        <mxCell id="78lRP6di_E0o8tFX1qry-9" value="store_marketing_tool(店铺营销工具关联表)" style="swimlane;fontStyle=0;childLayout=stackLayout;horizontal=1;startSize=26;fillColor=none;horizontalStack=0;resizeParent=1;resizeParentMax=0;resizeLast=0;collapsible=1;marginBottom=0;" parent="1" vertex="1">
          <mxGeometry x="440" y="481" width="250" height="104" as="geometry" />
        </mxCell>
        <mxCell id="78lRP6di_E0o8tFX1qry-10" value="+ store_id" style="text;strokeColor=none;fillColor=none;align=left;verticalAlign=top;spacingLeft=4;spacingRight=4;overflow=hidden;rotatable=0;points=[[0,0.5],[1,0.5]];portConstraint=eastwest;" parent="78lRP6di_E0o8tFX1qry-9" vertex="1">
          <mxGeometry y="26" width="250" height="26" as="geometry" />
        </mxCell>
        <mxCell id="78lRP6di_E0o8tFX1qry-11" value="+ marketing_tool_code" style="text;strokeColor=none;fillColor=none;align=left;verticalAlign=top;spacingLeft=4;spacingRight=4;overflow=hidden;rotatable=0;points=[[0,0.5],[1,0.5]];portConstraint=eastwest;" parent="78lRP6di_E0o8tFX1qry-9" vertex="1">
          <mxGeometry y="52" width="250" height="26" as="geometry" />
        </mxCell>
        <mxCell id="78lRP6di_E0o8tFX1qry-12" value="……" style="text;strokeColor=none;fillColor=none;align=left;verticalAlign=top;spacingLeft=4;spacingRight=4;overflow=hidden;rotatable=0;points=[[0,0.5],[1,0.5]];portConstraint=eastwest;" parent="78lRP6di_E0o8tFX1qry-9" vertex="1">
          <mxGeometry y="78" width="250" height="26" as="geometry" />
        </mxCell>
        <mxCell id="78lRP6di_E0o8tFX1qry-15" style="edgeStyle=orthogonalEdgeStyle;rounded=0;orthogonalLoop=1;jettySize=auto;html=1;exitX=1;exitY=0.5;exitDx=0;exitDy=0;entryX=1;entryY=0.5;entryDx=0;entryDy=0;" parent="1" source="78lRP6di_E0o8tFX1qry-11" target="78lRP6di_E0o8tFX1qry-2" edge="1">
          <mxGeometry relative="1" as="geometry">
            <Array as="points">
              <mxPoint x="860" y="546" />
              <mxPoint x="860" y="159" />
            </Array>
          </mxGeometry>
        </mxCell>
        <mxCell id="78lRP6di_E0o8tFX1qry-17" style="edgeStyle=orthogonalEdgeStyle;rounded=0;orthogonalLoop=1;jettySize=auto;html=1;exitX=1;exitY=0.5;exitDx=0;exitDy=0;entryX=1;entryY=0.5;entryDx=0;entryDy=0;" parent="1" source="78lRP6di_E0o8tFX1qry-7" target="78lRP6di_E0o8tFX1qry-2" edge="1">
          <mxGeometry relative="1" as="geometry">
            <Array as="points">
              <mxPoint x="780" y="355" />
              <mxPoint x="780" y="159" />
            </Array>
          </mxGeometry>
        </mxCell>
        <mxCell id="78lRP6di_E0o8tFX1qry-18" value="&lt;font style=&quot;font-size: 18px&quot; color=&quot;#3333ff&quot;&gt;saas授权数据库结构以及说明&lt;/font&gt;" style="text;html=1;align=center;verticalAlign=middle;resizable=0;points=[];autosize=1;strokeColor=none;" parent="1" vertex="1">
          <mxGeometry x="530" y="40" width="250" height="20" as="geometry" />
        </mxCell>
        <mxCell id="78lRP6di_E0o8tFX1qry-19" value="&lt;div style=&quot;text-align: left&quot;&gt;&lt;span style=&quot;font-size: 18px ; color: rgb(51 , 51 , 255)&quot;&gt;说明：&lt;/span&gt;&lt;/div&gt;&lt;div style=&quot;text-align: left&quot;&gt;&lt;span style=&quot;font-size: 18px ; color: rgb(51 , 51 , 255)&quot;&gt;1.&amp;nbsp;marketing_tool存储营销工具基本信息&lt;br&gt;2. saas_marketing_tool存储营销工具和saas的关系，&lt;br&gt;&amp;nbsp; &amp;nbsp;以及改saas是否开启此营销工具&lt;br&gt;&lt;/span&gt;&lt;span style=&quot;color: rgb(51 , 51 , 255) ; font-size: 18px&quot;&gt;3.&amp;nbsp;store_marketing_tool存储营销工具和store的关系，&lt;br&gt;&amp;nbsp; &amp;nbsp;以及改store是否开启此营销工具，store某个营销工具&lt;/span&gt;&lt;/div&gt;&lt;div style=&quot;text-align: left&quot;&gt;&lt;span style=&quot;color: rgb(51 , 51 , 255) ; font-size: 18px&quot;&gt;&amp;nbsp; &amp;nbsp;是否开启的最终结果需要结合marketing_tool，&lt;/span&gt;&lt;/div&gt;&lt;div style=&quot;text-align: left&quot;&gt;&lt;span style=&quot;color: rgb(51 , 51 , 255) ; font-size: 18px&quot;&gt;&amp;nbsp; &amp;nbsp;saas_marketing_tool，以及store_marketing_tool三&lt;/span&gt;&lt;/div&gt;&lt;div style=&quot;text-align: left&quot;&gt;&lt;span style=&quot;color: rgb(51 , 51 , 255) ; font-size: 18px&quot;&gt;&amp;nbsp; &amp;nbsp;张表的状态来判断&lt;/span&gt;&lt;br style=&quot;color: rgb(51 , 51 , 255) ; font-size: 18px&quot;&gt;&lt;/div&gt;" style="text;html=1;align=center;verticalAlign=middle;resizable=0;points=[];autosize=1;strokeColor=none;" parent="1" vertex="1">
          <mxGeometry x="430" y="710" width="450" height="150" as="geometry" />
        </mxCell>
        <mxCell id="78lRP6di_E0o8tFX1qry-20" value="&lt;font color=&quot;#3333ff&quot;&gt;&lt;span style=&quot;font-size: 18px&quot;&gt;saas开放平台订单&lt;/span&gt;&lt;/font&gt;" style="text;html=1;align=center;verticalAlign=middle;resizable=0;points=[];autosize=1;strokeColor=none;" parent="1" vertex="1">
          <mxGeometry x="1060" y="40" width="160" height="20" as="geometry" />
        </mxCell>
        <mxCell id="78lRP6di_E0o8tFX1qry-21" value="order_open" style="swimlane;fontStyle=0;childLayout=stackLayout;horizontal=1;startSize=26;fillColor=none;horizontalStack=0;resizeParent=1;resizeParentMax=0;resizeLast=0;collapsible=1;marginBottom=0;" parent="1" vertex="1">
          <mxGeometry x="1070" y="130" width="140" height="130" as="geometry" />
        </mxCell>
        <mxCell id="78lRP6di_E0o8tFX1qry-22" value="+ out_order_id" style="text;strokeColor=none;fillColor=none;align=left;verticalAlign=top;spacingLeft=4;spacingRight=4;overflow=hidden;rotatable=0;points=[[0,0.5],[1,0.5]];portConstraint=eastwest;" parent="78lRP6di_E0o8tFX1qry-21" vertex="1">
          <mxGeometry y="26" width="140" height="26" as="geometry" />
        </mxCell>
        <mxCell id="78lRP6di_E0o8tFX1qry-24" value="+ same_batch_number" style="text;strokeColor=none;fillColor=none;align=left;verticalAlign=top;spacingLeft=4;spacingRight=4;overflow=hidden;rotatable=0;points=[[0,0.5],[1,0.5]];portConstraint=eastwest;" parent="78lRP6di_E0o8tFX1qry-21" vertex="1">
          <mxGeometry y="52" width="140" height="26" as="geometry" />
        </mxCell>
        <mxCell id="78lRP6di_E0o8tFX1qry-25" value="+ store_id" style="text;strokeColor=none;fillColor=none;align=left;verticalAlign=top;spacingLeft=4;spacingRight=4;overflow=hidden;rotatable=0;points=[[0,0.5],[1,0.5]];portConstraint=eastwest;" parent="78lRP6di_E0o8tFX1qry-21" vertex="1">
          <mxGeometry y="78" width="140" height="26" as="geometry" />
        </mxCell>
        <mxCell id="78lRP6di_E0o8tFX1qry-23" value="……" style="text;strokeColor=none;fillColor=none;align=left;verticalAlign=top;spacingLeft=4;spacingRight=4;overflow=hidden;rotatable=0;points=[[0,0.5],[1,0.5]];portConstraint=eastwest;" parent="78lRP6di_E0o8tFX1qry-21" vertex="1">
          <mxGeometry y="104" width="140" height="26" as="geometry" />
        </mxCell>
        <mxCell id="78lRP6di_E0o8tFX1qry-26" value="&lt;div style=&quot;text-align: left&quot;&gt;&lt;span style=&quot;font-size: 18px ; color: rgb(51 , 51 , 255)&quot;&gt;说明：&lt;/span&gt;&lt;/div&gt;&lt;div style=&quot;text-align: left&quot;&gt;&lt;span style=&quot;font-size: 18px ; color: rgb(51 , 51 , 255)&quot;&gt;1.&amp;nbsp;外部生成的订单通过same_batch_number和saas的一&lt;/span&gt;&lt;/div&gt;&lt;div style=&quot;text-align: left&quot;&gt;&lt;span style=&quot;font-size: 18px ; color: rgb(51 , 51 , 255)&quot;&gt;&amp;nbsp; &amp;nbsp; 个或者多个订单进行关联，&lt;/span&gt;&lt;span style=&quot;color: rgb(51 , 51 , 255) ; font-size: 18px&quot;&gt;表中现有的order_id字段&lt;/span&gt;&lt;span style=&quot;color: rgb(51 , 51 , 255) ; font-size: 18px&quot;&gt;已&lt;/span&gt;&lt;/div&gt;&lt;div style=&quot;text-align: left&quot;&gt;&lt;span style=&quot;color: rgb(51 , 51 , 255) ; font-size: 18px&quot;&gt;&amp;nbsp; &amp;nbsp; 经废弃&lt;/span&gt;&lt;/div&gt;" style="text;html=1;align=center;verticalAlign=middle;resizable=0;points=[];autosize=1;strokeColor=none;" parent="1" vertex="1">
          <mxGeometry x="1060" y="349" width="460" height="70" as="geometry" />
        </mxCell>
        <mxCell id="i8r9v-NDTMNt73W6e1mo-1" value="settlement_context(结算相关环境配置，kv方式存储，目前主要用来做代理商品结算配置存储)" style="swimlane;fontStyle=0;childLayout=stackLayout;horizontal=1;startSize=26;fillColor=none;horizontalStack=0;resizeParent=1;resizeParentMax=0;resizeLast=0;collapsible=1;marginBottom=0;" parent="1" vertex="1">
          <mxGeometry x="154" y="1110" width="492" height="104" as="geometry" />
        </mxCell>
        <mxCell id="i8r9v-NDTMNt73W6e1mo-2" value="+ property" style="text;strokeColor=none;fillColor=none;align=left;verticalAlign=top;spacingLeft=4;spacingRight=4;overflow=hidden;rotatable=0;points=[[0,0.5],[1,0.5]];portConstraint=eastwest;" parent="i8r9v-NDTMNt73W6e1mo-1" vertex="1">
          <mxGeometry y="26" width="492" height="26" as="geometry" />
        </mxCell>
        <mxCell id="i8r9v-NDTMNt73W6e1mo-3" value="+ value" style="text;strokeColor=none;fillColor=none;align=left;verticalAlign=top;spacingLeft=4;spacingRight=4;overflow=hidden;rotatable=0;points=[[0,0.5],[1,0.5]];portConstraint=eastwest;" parent="i8r9v-NDTMNt73W6e1mo-1" vertex="1">
          <mxGeometry y="52" width="492" height="26" as="geometry" />
        </mxCell>
        <mxCell id="i8r9v-NDTMNt73W6e1mo-4" value="……" style="text;strokeColor=none;fillColor=none;align=left;verticalAlign=top;spacingLeft=4;spacingRight=4;overflow=hidden;rotatable=0;points=[[0,0.5],[1,0.5]];portConstraint=eastwest;" parent="i8r9v-NDTMNt73W6e1mo-1" vertex="1">
          <mxGeometry y="78" width="492" height="26" as="geometry" />
        </mxCell>
        <mxCell id="PSnNEIr_YmE9VNYy7DB6-1" value="settlement_monthly(记录每个用户月份结算状态)" style="swimlane;fontStyle=0;childLayout=stackLayout;horizontal=1;startSize=26;fillColor=none;horizontalStack=0;resizeParent=1;resizeParentMax=0;resizeLast=0;collapsible=1;marginBottom=0;" vertex="1" parent="1">
          <mxGeometry x="810" y="1380" width="290" height="130" as="geometry" />
        </mxCell>
        <mxCell id="PSnNEIr_YmE9VNYy7DB6-2" value="+ account_id" style="text;strokeColor=none;fillColor=none;align=left;verticalAlign=top;spacingLeft=4;spacingRight=4;overflow=hidden;rotatable=0;points=[[0,0.5],[1,0.5]];portConstraint=eastwest;" vertex="1" parent="PSnNEIr_YmE9VNYy7DB6-1">
          <mxGeometry y="26" width="290" height="26" as="geometry" />
        </mxCell>
        <mxCell id="PSnNEIr_YmE9VNYy7DB6-3" value="+ month" style="text;strokeColor=none;fillColor=none;align=left;verticalAlign=top;spacingLeft=4;spacingRight=4;overflow=hidden;rotatable=0;points=[[0,0.5],[1,0.5]];portConstraint=eastwest;" vertex="1" parent="PSnNEIr_YmE9VNYy7DB6-1">
          <mxGeometry y="52" width="290" height="26" as="geometry" />
        </mxCell>
        <mxCell id="PSnNEIr_YmE9VNYy7DB6-5" value="+ settlement_status" style="text;strokeColor=none;fillColor=none;align=left;verticalAlign=top;spacingLeft=4;spacingRight=4;overflow=hidden;rotatable=0;points=[[0,0.5],[1,0.5]];portConstraint=eastwest;" vertex="1" parent="PSnNEIr_YmE9VNYy7DB6-1">
          <mxGeometry y="78" width="290" height="26" as="geometry" />
        </mxCell>
        <mxCell id="PSnNEIr_YmE9VNYy7DB6-4" value="……" style="text;strokeColor=none;fillColor=none;align=left;verticalAlign=top;spacingLeft=4;spacingRight=4;overflow=hidden;rotatable=0;points=[[0,0.5],[1,0.5]];portConstraint=eastwest;" vertex="1" parent="PSnNEIr_YmE9VNYy7DB6-1">
          <mxGeometry y="104" width="290" height="26" as="geometry" />
        </mxCell>
        <mxCell id="PSnNEIr_YmE9VNYy7DB6-6" value="goods_amount(经销商全局货款)" style="swimlane;fontStyle=0;childLayout=stackLayout;horizontal=1;startSize=26;fillColor=none;horizontalStack=0;resizeParent=1;resizeParentMax=0;resizeLast=0;collapsible=1;marginBottom=0;" vertex="1" parent="1">
          <mxGeometry x="810" y="1690" width="230" height="78" as="geometry" />
        </mxCell>
        <mxCell id="PSnNEIr_YmE9VNYy7DB6-7" value="+ account_id" style="text;strokeColor=none;fillColor=none;align=left;verticalAlign=top;spacingLeft=4;spacingRight=4;overflow=hidden;rotatable=0;points=[[0,0.5],[1,0.5]];portConstraint=eastwest;" vertex="1" parent="PSnNEIr_YmE9VNYy7DB6-6">
          <mxGeometry y="26" width="230" height="26" as="geometry" />
        </mxCell>
        <mxCell id="PSnNEIr_YmE9VNYy7DB6-10" value="……" style="text;strokeColor=none;fillColor=none;align=left;verticalAlign=top;spacingLeft=4;spacingRight=4;overflow=hidden;rotatable=0;points=[[0,0.5],[1,0.5]];portConstraint=eastwest;" vertex="1" parent="PSnNEIr_YmE9VNYy7DB6-6">
          <mxGeometry y="52" width="230" height="26" as="geometry" />
        </mxCell>
        <mxCell id="PSnNEIr_YmE9VNYy7DB6-11" value="goods_amount_monthly(经销商每月货款)" style="swimlane;fontStyle=0;childLayout=stackLayout;horizontal=1;startSize=26;fillColor=none;horizontalStack=0;resizeParent=1;resizeParentMax=0;resizeLast=0;collapsible=1;marginBottom=0;" vertex="1" parent="1">
          <mxGeometry x="810" y="1560" width="272" height="78" as="geometry" />
        </mxCell>
        <mxCell id="PSnNEIr_YmE9VNYy7DB6-12" value="+ account_id" style="text;strokeColor=none;fillColor=none;align=left;verticalAlign=top;spacingLeft=4;spacingRight=4;overflow=hidden;rotatable=0;points=[[0,0.5],[1,0.5]];portConstraint=eastwest;" vertex="1" parent="PSnNEIr_YmE9VNYy7DB6-11">
          <mxGeometry y="26" width="272" height="26" as="geometry" />
        </mxCell>
        <mxCell id="PSnNEIr_YmE9VNYy7DB6-13" value="……" style="text;strokeColor=none;fillColor=none;align=left;verticalAlign=top;spacingLeft=4;spacingRight=4;overflow=hidden;rotatable=0;points=[[0,0.5],[1,0.5]];portConstraint=eastwest;" vertex="1" parent="PSnNEIr_YmE9VNYy7DB6-11">
          <mxGeometry y="52" width="272" height="26" as="geometry" />
        </mxCell>
        <mxCell id="PSnNEIr_YmE9VNYy7DB6-14" value="income_monthly(用户每月收益)" style="swimlane;fontStyle=0;childLayout=stackLayout;horizontal=1;startSize=26;fillColor=none;horizontalStack=0;resizeParent=1;resizeParentMax=0;resizeLast=0;collapsible=1;marginBottom=0;" vertex="1" parent="1">
          <mxGeometry x="810" y="1259" width="230" height="78" as="geometry" />
        </mxCell>
        <mxCell id="PSnNEIr_YmE9VNYy7DB6-15" value="+ account_id" style="text;strokeColor=none;fillColor=none;align=left;verticalAlign=top;spacingLeft=4;spacingRight=4;overflow=hidden;rotatable=0;points=[[0,0.5],[1,0.5]];portConstraint=eastwest;" vertex="1" parent="PSnNEIr_YmE9VNYy7DB6-14">
          <mxGeometry y="26" width="230" height="26" as="geometry" />
        </mxCell>
        <mxCell id="PSnNEIr_YmE9VNYy7DB6-16" value="……" style="text;strokeColor=none;fillColor=none;align=left;verticalAlign=top;spacingLeft=4;spacingRight=4;overflow=hidden;rotatable=0;points=[[0,0.5],[1,0.5]];portConstraint=eastwest;" vertex="1" parent="PSnNEIr_YmE9VNYy7DB6-14">
          <mxGeometry y="52" width="230" height="26" as="geometry" />
        </mxCell>
        <mxCell id="PSnNEIr_YmE9VNYy7DB6-20" value="order_settlement(订单结算记录)" style="swimlane;fontStyle=0;childLayout=stackLayout;horizontal=1;startSize=26;fillColor=none;horizontalStack=0;resizeParent=1;resizeParentMax=0;resizeLast=0;collapsible=1;marginBottom=0;" vertex="1" parent="1">
          <mxGeometry x="450" y="1259" width="230" height="130" as="geometry" />
        </mxCell>
        <mxCell id="PSnNEIr_YmE9VNYy7DB6-21" value="+ order_settlement_id" style="text;strokeColor=none;fillColor=none;align=left;verticalAlign=top;spacingLeft=4;spacingRight=4;overflow=hidden;rotatable=0;points=[[0,0.5],[1,0.5]];portConstraint=eastwest;" vertex="1" parent="PSnNEIr_YmE9VNYy7DB6-20">
          <mxGeometry y="26" width="230" height="26" as="geometry" />
        </mxCell>
        <mxCell id="PSnNEIr_YmE9VNYy7DB6-26" value="+ account_id" style="text;strokeColor=none;fillColor=none;align=left;verticalAlign=top;spacingLeft=4;spacingRight=4;overflow=hidden;rotatable=0;points=[[0,0.5],[1,0.5]];portConstraint=eastwest;" vertex="1" parent="PSnNEIr_YmE9VNYy7DB6-20">
          <mxGeometry y="52" width="230" height="26" as="geometry" />
        </mxCell>
        <mxCell id="PSnNEIr_YmE9VNYy7DB6-27" value="+ order_id" style="text;strokeColor=none;fillColor=none;align=left;verticalAlign=top;spacingLeft=4;spacingRight=4;overflow=hidden;rotatable=0;points=[[0,0.5],[1,0.5]];portConstraint=eastwest;" vertex="1" parent="PSnNEIr_YmE9VNYy7DB6-20">
          <mxGeometry y="78" width="230" height="26" as="geometry" />
        </mxCell>
        <mxCell id="PSnNEIr_YmE9VNYy7DB6-22" value="……" style="text;strokeColor=none;fillColor=none;align=left;verticalAlign=top;spacingLeft=4;spacingRight=4;overflow=hidden;rotatable=0;points=[[0,0.5],[1,0.5]];portConstraint=eastwest;" vertex="1" parent="PSnNEIr_YmE9VNYy7DB6-20">
          <mxGeometry y="104" width="230" height="26" as="geometry" />
        </mxCell>
        <mxCell id="PSnNEIr_YmE9VNYy7DB6-23" value="order_settlement_property(订单结算记录)" style="swimlane;fontStyle=0;childLayout=stackLayout;horizontal=1;startSize=26;fillColor=none;horizontalStack=0;resizeParent=1;resizeParentMax=0;resizeLast=0;collapsible=1;marginBottom=0;" vertex="1" parent="1">
          <mxGeometry x="450" y="1431" width="260" height="130" as="geometry" />
        </mxCell>
        <mxCell id="PSnNEIr_YmE9VNYy7DB6-24" value="+ order_settlement_id" style="text;strokeColor=none;fillColor=none;align=left;verticalAlign=top;spacingLeft=4;spacingRight=4;overflow=hidden;rotatable=0;points=[[0,0.5],[1,0.5]];portConstraint=eastwest;" vertex="1" parent="PSnNEIr_YmE9VNYy7DB6-23">
          <mxGeometry y="26" width="260" height="26" as="geometry" />
        </mxCell>
        <mxCell id="PSnNEIr_YmE9VNYy7DB6-28" value="+ property" style="text;strokeColor=none;fillColor=none;align=left;verticalAlign=top;spacingLeft=4;spacingRight=4;overflow=hidden;rotatable=0;points=[[0,0.5],[1,0.5]];portConstraint=eastwest;" vertex="1" parent="PSnNEIr_YmE9VNYy7DB6-23">
          <mxGeometry y="52" width="260" height="26" as="geometry" />
        </mxCell>
        <mxCell id="PSnNEIr_YmE9VNYy7DB6-29" value="+ value" style="text;strokeColor=none;fillColor=none;align=left;verticalAlign=top;spacingLeft=4;spacingRight=4;overflow=hidden;rotatable=0;points=[[0,0.5],[1,0.5]];portConstraint=eastwest;" vertex="1" parent="PSnNEIr_YmE9VNYy7DB6-23">
          <mxGeometry y="78" width="260" height="26" as="geometry" />
        </mxCell>
        <mxCell id="PSnNEIr_YmE9VNYy7DB6-25" value="……" style="text;strokeColor=none;fillColor=none;align=left;verticalAlign=top;spacingLeft=4;spacingRight=4;overflow=hidden;rotatable=0;points=[[0,0.5],[1,0.5]];portConstraint=eastwest;" vertex="1" parent="PSnNEIr_YmE9VNYy7DB6-23">
          <mxGeometry y="104" width="260" height="26" as="geometry" />
        </mxCell>
        <mxCell id="PSnNEIr_YmE9VNYy7DB6-30" value="order_settlement_temp(订单迁移数据)" style="swimlane;fontStyle=0;childLayout=stackLayout;horizontal=1;startSize=26;fillColor=none;horizontalStack=0;resizeParent=1;resizeParentMax=0;resizeLast=0;collapsible=1;marginBottom=0;" vertex="1" parent="1">
          <mxGeometry x="154" y="1259" width="230" height="104" as="geometry" />
        </mxCell>
        <mxCell id="PSnNEIr_YmE9VNYy7DB6-31" value="+ order_id" style="text;strokeColor=none;fillColor=none;align=left;verticalAlign=top;spacingLeft=4;spacingRight=4;overflow=hidden;rotatable=0;points=[[0,0.5],[1,0.5]];portConstraint=eastwest;" vertex="1" parent="PSnNEIr_YmE9VNYy7DB6-30">
          <mxGeometry y="26" width="230" height="26" as="geometry" />
        </mxCell>
        <mxCell id="PSnNEIr_YmE9VNYy7DB6-32" value="+ pay_time" style="text;strokeColor=none;fillColor=none;align=left;verticalAlign=top;spacingLeft=4;spacingRight=4;overflow=hidden;rotatable=0;points=[[0,0.5],[1,0.5]];portConstraint=eastwest;" vertex="1" parent="PSnNEIr_YmE9VNYy7DB6-30">
          <mxGeometry y="52" width="230" height="26" as="geometry" />
        </mxCell>
        <mxCell id="PSnNEIr_YmE9VNYy7DB6-34" value="……" style="text;strokeColor=none;fillColor=none;align=left;verticalAlign=top;spacingLeft=4;spacingRight=4;overflow=hidden;rotatable=0;points=[[0,0.5],[1,0.5]];portConstraint=eastwest;" vertex="1" parent="PSnNEIr_YmE9VNYy7DB6-30">
          <mxGeometry y="78" width="230" height="26" as="geometry" />
        </mxCell>
        <mxCell id="PSnNEIr_YmE9VNYy7DB6-35" value="order_distribution_settlement(订单结算记录)" style="swimlane;fontStyle=0;childLayout=stackLayout;horizontal=1;startSize=26;fillColor=none;horizontalStack=0;resizeParent=1;resizeParentMax=0;resizeLast=0;collapsible=1;marginBottom=0;" vertex="1" parent="1">
          <mxGeometry x="-650" y="1290" width="300" height="104" as="geometry" />
        </mxCell>
        <mxCell id="PSnNEIr_YmE9VNYy7DB6-36" value="+ order_id" style="text;strokeColor=none;fillColor=none;align=left;verticalAlign=top;spacingLeft=4;spacingRight=4;overflow=hidden;rotatable=0;points=[[0,0.5],[1,0.5]];portConstraint=eastwest;" vertex="1" parent="PSnNEIr_YmE9VNYy7DB6-35">
          <mxGeometry y="26" width="300" height="26" as="geometry" />
        </mxCell>
        <mxCell id="PSnNEIr_YmE9VNYy7DB6-37" value="+ account_id" style="text;strokeColor=none;fillColor=none;align=left;verticalAlign=top;spacingLeft=4;spacingRight=4;overflow=hidden;rotatable=0;points=[[0,0.5],[1,0.5]];portConstraint=eastwest;" vertex="1" parent="PSnNEIr_YmE9VNYy7DB6-35">
          <mxGeometry y="52" width="300" height="26" as="geometry" />
        </mxCell>
        <mxCell id="PSnNEIr_YmE9VNYy7DB6-39" value="……" style="text;strokeColor=none;fillColor=none;align=left;verticalAlign=top;spacingLeft=4;spacingRight=4;overflow=hidden;rotatable=0;points=[[0,0.5],[1,0.5]];portConstraint=eastwest;" vertex="1" parent="PSnNEIr_YmE9VNYy7DB6-35">
          <mxGeometry y="78" width="300" height="26" as="geometry" />
        </mxCell>
        <mxCell id="PSnNEIr_YmE9VNYy7DB6-40" style="edgeStyle=orthogonalEdgeStyle;rounded=0;orthogonalLoop=1;jettySize=auto;html=1;exitX=1;exitY=0.5;exitDx=0;exitDy=0;entryX=1;entryY=0.5;entryDx=0;entryDy=0;" edge="1" parent="1" source="PSnNEIr_YmE9VNYy7DB6-24" target="PSnNEIr_YmE9VNYy7DB6-21">
          <mxGeometry relative="1" as="geometry" />
        </mxCell>
        <mxCell id="PSnNEIr_YmE9VNYy7DB6-41" value="account_distribution_income(用户分销收益)" style="swimlane;fontStyle=0;childLayout=stackLayout;horizontal=1;startSize=26;fillColor=none;horizontalStack=0;resizeParent=1;resizeParentMax=0;resizeLast=0;collapsible=1;marginBottom=0;" vertex="1" parent="1">
          <mxGeometry x="-240" y="1420" width="300" height="78" as="geometry" />
        </mxCell>
        <mxCell id="PSnNEIr_YmE9VNYy7DB6-42" value="+ account_id" style="text;strokeColor=none;fillColor=none;align=left;verticalAlign=top;spacingLeft=4;spacingRight=4;overflow=hidden;rotatable=0;points=[[0,0.5],[1,0.5]];portConstraint=eastwest;" vertex="1" parent="PSnNEIr_YmE9VNYy7DB6-41">
          <mxGeometry y="26" width="300" height="26" as="geometry" />
        </mxCell>
        <mxCell id="PSnNEIr_YmE9VNYy7DB6-44" value="……" style="text;strokeColor=none;fillColor=none;align=left;verticalAlign=top;spacingLeft=4;spacingRight=4;overflow=hidden;rotatable=0;points=[[0,0.5],[1,0.5]];portConstraint=eastwest;" vertex="1" parent="PSnNEIr_YmE9VNYy7DB6-41">
          <mxGeometry y="52" width="300" height="26" as="geometry" />
        </mxCell>
        <mxCell id="PSnNEIr_YmE9VNYy7DB6-45" value="invite_settlement_temp(邀请迁移数据)" style="swimlane;fontStyle=0;childLayout=stackLayout;horizontal=1;startSize=26;fillColor=none;horizontalStack=0;resizeParent=1;resizeParentMax=0;resizeLast=0;collapsible=1;marginBottom=0;" vertex="1" parent="1">
          <mxGeometry x="154" y="1400" width="230" height="104" as="geometry" />
        </mxCell>
        <mxCell id="PSnNEIr_YmE9VNYy7DB6-46" value="+ order_id" style="text;strokeColor=none;fillColor=none;align=left;verticalAlign=top;spacingLeft=4;spacingRight=4;overflow=hidden;rotatable=0;points=[[0,0.5],[1,0.5]];portConstraint=eastwest;" vertex="1" parent="PSnNEIr_YmE9VNYy7DB6-45">
          <mxGeometry y="26" width="230" height="26" as="geometry" />
        </mxCell>
        <mxCell id="PSnNEIr_YmE9VNYy7DB6-47" value="+ pay_time" style="text;strokeColor=none;fillColor=none;align=left;verticalAlign=top;spacingLeft=4;spacingRight=4;overflow=hidden;rotatable=0;points=[[0,0.5],[1,0.5]];portConstraint=eastwest;" vertex="1" parent="PSnNEIr_YmE9VNYy7DB6-45">
          <mxGeometry y="52" width="230" height="26" as="geometry" />
        </mxCell>
        <mxCell id="PSnNEIr_YmE9VNYy7DB6-48" value="……" style="text;strokeColor=none;fillColor=none;align=left;verticalAlign=top;spacingLeft=4;spacingRight=4;overflow=hidden;rotatable=0;points=[[0,0.5],[1,0.5]];portConstraint=eastwest;" vertex="1" parent="PSnNEIr_YmE9VNYy7DB6-45">
          <mxGeometry y="78" width="230" height="26" as="geometry" />
        </mxCell>
        <mxCell id="PSnNEIr_YmE9VNYy7DB6-51" value="&lt;font color=&quot;#3333ff&quot;&gt;&lt;span style=&quot;font-size: 18px&quot;&gt;说明：saas系统中&lt;br&gt;&lt;/span&gt;&lt;/font&gt;" style="text;html=1;align=left;verticalAlign=middle;resizable=0;points=[];autosize=1;strokeColor=none;" vertex="1" parent="1">
          <mxGeometry x="-520" y="2140" width="160" height="20" as="geometry" />
        </mxCell>
      </root>
    </mxGraphModel>
  </diagram>
</mxfile>
